HIERARCHY
ROOT Hips
{
  OFFSET 0 0 0
  CHANNELS 6 Xposition Yposition Zposition Zrotation Yrotation Xrotation
  JOINT LeftThigh
  {
    OFFSET 8.409438 0 -5.917753
    CHANNELS 3 Zrotation Yrotation Xrotation
    JOINT LeftLeg
    {
      OFFSET 0 0 -42.358652
      CHANNELS 3 Zrotation Yrotation Xrotation
      JOINT LeftFoot
      {
        OFFSET 0 0 -39.357303
        CHANNELS 3 Zrotation Yrotation Xrotation
      }
    }
  }
  JOINT RightThigh
  {
    OFFSET -8.409438 0 -5.917753
    CHANNELS 3 Zrotation Yrotation Xrotation
    JOINT RightLeg
    {
      OFFSET 0 0 -42.358652
      CHANNELS 3 Zrotation Yrotation Xrotation
      JOINT RightFoot
      {
        OFFSET 0 0 -39.357303
        CHANNELS 3 Zrotation Yrotation Xrotation
      }
    }
  }
  JOINT SpineLow
  {
    OFFSET 0 0 4.719101
    CHANNELS 3 Zrotation Yrotation Xrotation
    JOINT SpineMid
    {
      OFFSET 0 0 12.899191
      CHANNELS 3 Zrotation Yrotation Xrotation
      JOINT Chest
      {
        OFFSET 0 0 12.899191
        CHANNELS 3 Zrotation Yrotation Xrotation
        JOINT LeftShoulder
        {
          OFFSET 7.550562 1.41573 9.438202
          CHANNELS 3 Zrotation Yrotation Xrotation
          JOINT LeftArm
          {
            OFFSET 9.155056 0 4.247191
            CHANNELS 3 Zrotation Yrotation Xrotation
            JOINT LeftForearm
            {
              OFFSET 0 0 25.771955
              CHANNELS 3 Zrotation Yrotation Xrotation
              JOINT LeftHand
              {
                OFFSET 0 0 25.197169
                CHANNELS 3 Zrotation Yrotation Xrotation
              }
            }
          }
        }
        JOINT RightShoulder
        {
          OFFSET -7.550562 1.41573 9.438202
          CHANNELS 3 Zrotation Yrotation Xrotation
          JOINT RightArm
          {
            OFFSET -9.155056 0 4.247191
            CHANNELS 3 Zrotation Yrotation Xrotation
            JOINT RightForearm
            {
              OFFSET 0 0 -25.771955
              CHANNELS 3 Zrotation Yrotation Xrotation
              JOINT RightHand
              {
                OFFSET 0 0 -25.197169
                CHANNELS 3 Zrotation Yrotation Xrotation
              }
            }
          }
        }
        JOINT Neck
        {
          OFFSET 0 0 15.101124
          CHANNELS 3 Zrotation Yrotation Xrotation
          JOINT Head
          {
            OFFSET 0 0 11.325843
            CHANNELS 3 Zrotation Yrotation Xrotation
            End Site
            {
              OFFSET 0 0 14.157303
            }
          }
        }
      }
    }
  }
}
MOTION
Frames: 8
Frame Time: 0.0
0.0  89.887642  0.0  -90.282078  42.327741  -168.321193  13.220993  -50.986958  -31.418985  -8.210382  11.236662  24.050952  8.158685  -2.794727  3.422256  23.748275  58.419103  -9.930368  6.000761  6.981754  14.388721  -0.929922  3.159286  3.770734  -4.195045  -3.54437  -0.786031  -11.426821  -9.79042  -1.534068  -11.426821  -9.79042  -1.534068  -10.047589  17.59919  4.354016  109.837875  58.011895  -149.462779  -15.854085  -12.512685  67.796248  90.834742  18.43743  32.284021  -28.447527  17.092922  9.435332  62.6741  35.494916  53.073513  -28.063091  -7.937091  -60.790242  54.749211  -3.581811  17.52236  -47.401355  7.928888  20.192815  -35.803663  4.413342  15.855042  
0.0  89.887642  0.0  -89.51078  41.513919  -167.768077  8.547552  -53.320436  -27.810218  -5.670725  11.089983  24.949883  9.571544  -2.394966  3.552864  4.461749  56.777051  -27.447155  2.880884  3.728015  14.197977  -0.14714  3.309089  3.069887  -4.246289  -3.474455  -0.657826  -11.585867  -9.578522  -1.186989  -11.585867  -9.578522  -1.18699  -5.714998  17.780904  5.181804  116.340476  59.365934  -146.01595  -14.162528  -10.784592  69.148659  94.726458  15.530016  28.988844  -26.451167  17.664973  9.770085  62.786654  34.346937  52.63251  -26.54309  -10.388579  -59.364048  53.052752  -4.864777  20.347243  -45.667166  7.726983  19.273806  -34.483603  4.385648  15.116561  
0.0  89.887642  0.0  -88.138283  40.407785  -167.934634  4.45351  -55.963199  -23.414528  -4.017098  11.78652  25.601804  10.637668  -2.180037  3.777113  -13.866692  50.484636  -43.610292  1.776252  -0.195816  16.109146  -0.726156  4.321829  1.518492  -4.322831  -3.351705  -0.224251  -11.855133  -9.167841  -0.009704  -11.855133  -9.167841  -0.009704  -3.114194  17.761299  3.809649  123.069698  59.07729  -144.258616  -14.799378  -9.512923  70.407138  96.767644  11.633484  27.941846  -23.997762  17.175005  9.832226  63.797656  34.57058  52.015096  -25.681798  -12.962969  -57.376929  52.701737  -5.81449  21.594818  -43.554767  7.570833  17.976485  -32.875459  4.42547  14.091961  
0.0  89.887642  0.0  -86.938187  39.4701  -168.387619  2.147845  -57.21847  -20.088921  -3.780449  12.211345  25.68468  11.527379  -1.763881  3.845507  -26.816302  39.968107  -52.85442  2.41808  -1.308695  18.328528  -0.424358  4.852002  0.353291  -4.260443  -3.292368  0.261145  -11.747264  -8.92064  1.300341  -11.747264  -8.920639  1.300341  -3.81769  18.222799  1.581545  129.585846  58.03748  -143.02525  -16.842565  -8.445286  71.826274  96.379558  9.242076  27.761694  -22.567839  16.476423  9.131602  66.990018  35.41931  51.572635  -27.136971  -15.371679  -53.944809  53.744406  -6.224183  20.687906  -42.057021  7.660052  15.957537  -31.721607  4.67508  12.552401  
0.0  89.887642  0.0  -85.647729  38.336972  -167.538273  3.817691  -57.391416  -19.832307  -3.771927  11.998868  25.08677  11.924965  -1.719709  3.881876  -37.929848  27.155237  -62.916825  4.315325  -2.375438  24.523177  0.879068  5.547583  -0.872294  -4.024227  -3.283469  0.199866  -11.089352  -8.912734  1.098889  -11.089352  -8.912734  1.098888  -5.164618  18.869172  2.18985  134.089602  56.947979  -141.362724  -18.774204  -6.994704  71.83915  95.176601  7.205753  27.234466  -21.453471  16.359397  10.25947  69.025566  36.232805  52.459379  -28.392137  -16.108817  -52.675148  55.560378  -5.885689  18.467462  -41.170004  9.070051  14.516241  -31.049255  5.859342  11.543654  
0.0  89.887642  0.0  -83.215833  37.245364  -165.338142  8.636967  -56.515443  -21.700459  -4.036612  11.067043  24.717234  11.296762  -2.10651  4.456775  -44.701481  13.519162  -67.778587  7.844109  -2.052151  28.350629  0.863459  5.824237  -1.743933  -3.470686  -3.247379  -0.070849  -9.530138  -8.865418  0.276094  -9.530138  -8.865419  0.276094  -6.226582  19.120696  3.987416  136.094076  56.067687  -139.112578  -20.784013  -5.249463  70.617506  94.396192  5.478294  26.037565  -21.627639  16.350682  11.619506  70.394726  36.491563  53.394234  -29.717895  -14.421174  -52.601391  57.401566  -4.668776  16.196811  -40.975177  10.579932  13.648777  -30.898647  7.061805  10.984143  
0.0  89.887642  0.0  -78.501118  36.881014  -163.465605  12.836672  -54.093754  -20.733139  -5.309788  9.017648  25.020525  9.594348  -2.351119  4.341706  -47.49608  4.788881  -70.224203  9.780803  -0.854792  31.318656  -0.097361  5.467625  -2.176194  -2.632924  -2.966304  -0.02928  -7.226693  -8.100176  0.245269  -7.226693  -8.100176  0.245269  -7.319272  19.349922  5.294914  135.536879  55.708193  -138.141292  -23.196093  -3.301002  69.151794  95.020645  3.624317  25.30945  -22.466459  16.367998  12.966205  70.46579  37.149991  53.616081  -30.792765  -10.358103  -53.567772  58.528778  -3.310658  14.55949  -41.207626  11.389793  13.309565  -31.069498  7.691281  10.786083  
0.0  89.887642  0.0  -74.537274  35.962735  -162.966644  14.096718  -53.061184  -17.715281  -7.756188  7.934213  25.20031  9.886524  -1.88717  4.467215  -46.592878  0.740067  -68.940581  7.589786  2.852291  32.814023  -0.122341  4.984414  -2.222827  -2.047111  -2.835175  0.274006  -5.651505  -7.719819  0.993329  -5.651505  -7.719818  0.993329  -7.619848  19.440784  5.493246  134.23863  54.866211  -137.57731  -24.530528  -1.508628  68.148295  96.477447  2.617064  24.157063  -22.226987  16.562623  14.096794  69.68953  38.977953  53.620672  -31.249177  -6.791155  -55.110171  59.711733  -2.108396  14.200905  -41.031417  11.639617  13.036526  -30.932735  7.901689  10.593065  
